<svg xmlns="http://www.w3.org/2000/svg" width="141" height="77" viewBox="0 0 141 77"><g fill="none"><path d="M112.928 3.925c.974-2.31 3.2-3.925 5.79-3.925 3.49 0 6.002 2.985 6.318 6.542 0 0 .17.883-.205 2.472-.51 2.165-1.712 4.089-3.332 5.556l-8.571 7.648-8.428-7.648c-1.62-1.467-2.82-3.391-3.332-5.556-.375-1.59-.205-2.473-.205-2.473C101.28 2.984 103.792 0 107.281 0c2.59 0 4.672 1.615 5.647 3.925zm19.917 20.665c.643-1.525 2.112-2.59 3.821-2.59 2.302 0 3.96 1.97 4.169 4.317 0 0 .112.582-.136 1.631-.337 1.429-1.13 2.698-2.198 3.666l-5.656 5.047-5.561-5.047c-1.069-.968-1.861-2.238-2.199-3.666-.247-1.05-.135-1.632-.135-1.632.209-2.347 1.867-4.316 4.169-4.316 1.709 0 3.083 1.065 3.726 2.59zm-124 15c.643-1.525 2.112-2.59 3.821-2.59 2.302 0 3.96 1.97 4.169 4.317 0 0 .112.582-.136 1.631-.337 1.429-1.13 2.698-2.198 3.666l-5.656 5.047-5.561-5.047c-1.069-.968-1.861-2.238-2.199-3.666-.247-1.05-.135-1.632-.135-1.632C1.16 38.97 2.817 37 5.12 37c1.709 0 3.083 1.065 3.726 2.59z" fill="#F39200"/><path fill="#D80027" d="M85.385 42.66l-15.85 14.97 22.521 18.768V36.36z"/><path fill="#FF5023" d="M32 36.36v40.038L54.521 57.63z"/><path fill="#D80027" d="M54.521 57.63L32 76.398h30.028V64.72z"/><path fill="#A2001D" d="M62.028 64.72v11.678h30.028L69.536 57.63z"/><path fill="#FF5023" d="M38.672 30.059L32 36.36h6.671zm53.384 6.301l-6.672-6.301v6.301zM62.028 8L51.387 18.05l21.255-.025z"/><path fill="#A2001D" d="M85.385 42.66l6.671-6.3h-6.671zM62.028 64.72L38.671 42.66v-6.3H32l22.521 21.27z"/><path fill="#DEDDE0" d="M38.67 42.66l23.358 22.06 7.507-7.09 15.85-14.97v-12.6l-.002-12.05-12.74.016-21.256.025-12.714.015-.001 11.994v6.301l-.001 6.3zm8.344-4.632h30.028v5.005H47.014v-5.005zm0-5.005V28.02h30.028v5.004H47.014z"/></g></svg>