<svg xmlns="http://www.w3.org/2000/svg" xmlns:xlink="http://www.w3.org/1999/xlink" width="71" height="37" viewBox="0 0 71 37"><defs><path id="a" d="M7.373.006v13.071H.213V.007h7.16z"/></defs><g fill="none" fill-rule="evenodd"><path fill="#E30613" d="M43.264 18.166c.9.301 1.858.453 2.875.453a9.257 9.257 0 0 0 2.888-.453 8.63 8.63 0 0 0 1.947-.904c1.435-.884 2.577-2.071 3.365-3.56l.347-.663-3.242-1.833-.372.706c-.486.914-1.151 1.649-2.038 2.187a5.437 5.437 0 0 1-2.895.799c-.903 0-1.752-.186-2.54-.596l8.023-7.073 2.717-2.4-.345-.556c-.823-1.302-1.964-2.31-3.304-3.062A8.875 8.875 0 0 0 47.565.12 8.307 8.307 0 0 0 46.14.004c-.246 0-.486.01-.724.026-2.232.16-4.18 1.072-5.818 2.685-1.832 1.805-2.763 4.02-2.763 6.597 0 1.494.328 2.86.956 4.1a9.979 9.979 0 0 0 1.798 2.451c1.089 1.09 2.31 1.86 3.676 2.303m-2.641-9.725v-.008a5.273 5.273 0 0 1 1.542-3.096c.151-.15.31-.295.468-.425h.01c1-.815 2.161-1.188 3.496-1.188 1.072 0 2.046.264 2.932.814l-8.013 7.11a5.554 5.554 0 0 1-.495-2.336c0-.304.017-.586.06-.871M9.316.011c-2.355 0-4.4.796-6.127 2.32a15.37 15.37 0 0 0-.425.39C.934 4.53 0 6.74 0 9.316c0 2.56.958 4.745 2.756 6.553 1.238 1.24 2.665 2.08 4.268 2.48a9.918 9.918 0 0 0 2.292.274 9.33 9.33 0 0 0 2.906-.444c.077-.027.157-.055.238-.087h.01c1.096-.392 2.096-1.002 3.018-1.824l2.87 2.081.262.194V0l-3.14 2.365C13.742.807 11.68.011 9.315.011m3.958 13.265c-.859.848-1.842 1.363-2.966 1.545a5.674 5.674 0 0 1-.992.082c-1.557 0-2.877-.513-3.975-1.61-1.107-1.097-1.613-2.426-1.613-3.977 0-1.416.428-2.645 1.348-3.682.08-.1.168-.194.265-.294 1.099-1.106 2.419-1.61 3.976-1.61 1.55 0 2.86.532 3.958 1.63 1.1 1.098 1.63 2.408 1.63 3.957 0 1.55-.53 2.86-1.63 3.96m18.128 5.313h3.725V7.66c0-1.983-.68-3.72-2.085-5.128C31.633 1.123 29.896.449 27.908.449c-1.75 0-3.312.546-4.622 1.682L20.695.032v18.559h3.724V7.66c0-.97.328-1.783 1.016-2.473.687-.689 1.504-1.019 2.473-1.019.97 0 1.79.314 2.488.986.707.688 1.006 1.53 1.006 2.506v10.93z"/><path fill="#E30613" d="M70.256 18.613L64.228 7.996 68.753.01h-4.406l-2.343 4.127L59.661.01h-4.414L59.818 8l-6.074 10.613h4.413l3.847-6.757 3.84 6.757z"/><path fill="#312783" d="M35.128 24.952h-.004v-3.644l-2.63 1.145v2.504h-1.96v2.468h1.96v3.532h.004v1.387c0 1.348.456 2.533 1.419 3.488.058.057.121.11.18.166l.466.419 1.67-2.092-.413-.369c-.004-.004-.008-.01-.016-.016-.46-.436-.676-.961-.676-1.596v-4.919h1.93v-2.468h-1.93v-.005z"/><path fill="#E30613" d="M44.531 23.399c-.048-.06-.076-.006-.098.072.178.094-.052-.03.098-.072m.624.118c.012-.013.024-.013.036-.023-.016-.007-.03-.006-.036.023m.488 12.179h-.004c-.02.014-.04.025-.056.044.025.002.036-.016.06-.044"/><path fill="#E30613" d="M50.665 28.629l.127-.048c-.103-.246-.14-.493-.204-.734-.066-.24-.157-.476-.358-.658a.93.93 0 0 0-.072-.479c-.175-.11-.193-.174-.407-.193-.04-.049.033-.132.062-.178-.074-.205-.036-.49-.314-.512l.09-.074c-.197-.077-.452-.18-.479-.41-.111.026-.267-.089-.305.062-.069-.036.105-.162-.034-.136l.168-.06c-.259-.341-.588-.532-.966-.707.017-.23-.33-.21-.474-.42-.17.02-.312-.228-.508-.053l.042-.106c-.16-.093-.384-.19-.593-.32-.126-.075-.177.084-.298.11l.026-.112c-.13.034-.201.182-.267.282l-.004-.001c-.006-.011-.02-.01-.032-.011-.048-.046-.08-.007-.138-.089.098-.042.196-.143.29-.273-.132-.087-.336.165-.388-.026-.118-.064-.223-.033-.252.116.034-.046-.067-.1.013-.156-.09-.01-.146.003-.204.051.015.006.033.02.05.02-.052.094-.12.1-.136.216-.033-.01-.068-.01-.108-.01.003-.099.11-.158.056-.23-.078.074-.147.149-.217.224a2.679 2.679 0 0 0-.398-.02 5.48 5.48 0 0 0-1.699.26h-.005c.165-.121.375-.15.575-.172.252-.029.482-.054.68-.28.327-.13.446-.596.446-.596a9.676 9.676 0 0 1-1.284.146c-.427.022-.872.044-1.351.119-.279.16-.598.412-.88.504-.248.175-.497.337-.742.514l-.184.131-.187.14-.077.056-.02.016-.008.008-.004.005-.006.003-.01.008-.045.034-.176.148c-.462.395-.892.893-1.113 1.5.086-.032.13.075.127.142l-.054-.008.062.139c-.028.088-.146-.012-.129-.091-.218.455-.314.9-.455 1.36.162.069-.04.247.133.298-.037.013-.042-.008-.073-.028.03.341.04.355-.213.635a5.51 5.51 0 0 0-.04.236l-.029.25-.005.1-.009.128v.24c.005.322.04.644.104.961.126.64.36 1.255.65 1.84a5.827 5.827 0 0 0 1.234 1.49c.46.405.994.777 1.568 1.084a.563.563 0 0 1 .394-.016c.125.021.246.052.4-.013l-.05.071c.227-.037.211.116.414.298.034-.091.097.006.117-.157.117-.107.073.26.22.228-.015.056.02-.094.033-.038.18-.052.155-.035.136.028-.022.063-.043.172.144.293.588.068 1.18-.061 1.709.016-.035.01-.053-.117 0-.124.063.259.175-.08.273.018 0 .052-.043.073-.067.098.26.09.444-.095.694-.02.094-.068.204-.073.312-.073.128.002.25.004.309-.09-.005.112.122.046.185.08.03-.173.144-.181.268-.184.125-.004.263-.004.315-.14l.015.05c.285-.135.58-.277.856-.456.278-.18.531-.396.725-.658.116-.126.311-.225.47-.32.17-.104.333-.232.408-.427.015-.083-.075-.081-.058-.147.063-.07.073.064.123.055.024-.225.3-.34.433-.555-.026-.05-.002-.116-.077-.136.163-.058.23-.21.287-.367.054-.155.097-.316.222-.41-.284-.02-.068-.21-.09-.322.03-.046.1-.027.143.006a1.22 1.22 0 0 1 .21-.53c0-.12-.132-.185-.063-.309.205-.044.066-.278.155-.396-.162.005-.265-.18-.18-.295l.22.065c-.09-.428.179-1.037-.154-1.508zm-11.768 1.683c0-.003.004-.009.005-.012 0 .024.002.048.01.074-.02-.015-.028-.033-.015-.062zm6.305-6.58c-.002.007-.007.01-.009.015l-.002-.001a.089.089 0 0 0-.053-.007c.017-.013.034-.018.064-.006zm-.625 1.755a4.11 4.11 0 0 1 2.53.982l.025.023a4.114 4.114 0 0 1 1.428 3.116 3.991 3.991 0 0 1-.052.616c-.02.138-.048.273-.081.407-.007.022-.012.045-.018.067a.36.36 0 0 1-.012.044l-.005.024c-.07.236-.16.462-.268.678l-.031.065-.002.002-.019.04a4.204 4.204 0 0 1-.446.67l-.062.07c-.02.024-.043.047-.064.07a4.078 4.078 0 0 1-.351.348c-.017.014-.032.03-.048.044-.015.011-.028.026-.042.037a4.128 4.128 0 0 1-5.553-6.096l.02-.02a4.105 4.105 0 0 1 1.41-.912c.093-.036.187-.072.282-.101.062-.02.127-.033.19-.049l.067-.017a4.12 4.12 0 0 1 .955-.115c.05 0 .097.006.147.007zm-2.111-1.576c.066-.064.095.037.121.095h-.006a3.057 3.057 0 0 0-.286.097c-.004 0-.01.004-.013.006.068-.059.131-.123.184-.198zm-2.484 1.768c.038.006.044.04.066.074.004-.152.125-.214.221-.275.1-.066.177-.135.116-.324l-.056-.15c.08.003.151.08.218.087-.032-.106.145-.168.083-.287.059.03.043.067.072.1.103-.05.062-.3.182-.33l.015.076c.271-.07.558-.143.819-.235-.01 0-.01.01-.018.01h-.009c-.009 0-.009.008-.02.008h-.007s-.008.012-.018.012c-.41.22-.802.523-1.166.887a5.687 5.687 0 0 0-.624.724c.054-.123.1-.247.126-.377zm-.59 1.133c-.017.01-.018.02-.018.036a.237.237 0 0 0-.065-.068.216.216 0 0 1 .084.032zm-.47 1.398c-.018.024-.018.055-.018.088l-.007-.085.025-.003zm-.064 1.763c0 .044 0 .081.02.116v.01l.002.013c-.02-.046-.034-.093-.053-.118.014-.005.021-.014.031-.02zm.018.524c.02-.01.04-.01.06-.012.002.002.001.003.002.005 0 .019 0 .035.009.052-.02-.015-.04-.032-.07-.045zm.121.272h.005l.001.004-.006-.004zm.051.287l.042.002v.003c.009.034.018.062.037.08v.003c-.057.01-.108.013-.079-.088zm.08.155l.014-.005v.005l.01.01.002.004c-.01-.004-.016-.011-.026-.014zm.471 1.003c-.04-.04-.039-.07-.02-.097l.001.004a.72.72 0 0 0 .048.08l-.029.013zm.414.793c-.008-.06-.177-.141-.22-.18.065-.09.024.04.1 0l.043-.148c.013.013.025.01.037.01l.009.01c.078.106.157.199.242.287-.074.01-.147.021-.21.02zm.343.188c.017.004.03-.007.043-.025l.001.001c0 .006.003.01.006.012l-.05.012z"/><path fill="#E30613" d="M50.502 31.621l-.023-.02-.019.09.042-.07zm-5.819-8.242c-.015.087.038.187.044.278.089-.123-.013-.183-.044-.278"/><path fill="#F39200" d="M43.475 25.595l-.066.017c-.064.016-.129.03-.19.049-.096.029-.19.065-.282.101a4.113 4.113 0 0 0-1.411.913l-.02.018a4.128 4.128 0 0 0 5.553 6.097l.042-.037c.016-.014.031-.03.048-.044a3.821 3.821 0 0 0 .35-.349c.022-.023.044-.045.064-.069.02-.024.043-.047.063-.07a4.324 4.324 0 0 0 .446-.67l.019-.04.002-.002.03-.065c.11-.216.2-.442.269-.678l.006-.024.011-.044.017-.068a4.17 4.17 0 0 0 .083-.406l.004-.031c.028-.192.047-.386.047-.585a4.114 4.114 0 0 0-1.428-3.116l-.024-.023a4.112 4.112 0 0 0-2.531-.983c-.05 0-.098-.006-.147-.006a4.14 4.14 0 0 0-.955.115"/><g transform="translate(62.912 22.782)"><mask id="b" fill="#fff"><use xlink:href="#a"/></mask><path fill="#312783" d="M5.293.3C4.061.3 2.96.685 2.038 1.485L.212.006v13.071h2.623V5.38c0-.683.232-1.256.716-1.742a2.355 2.355 0 0 1 1.742-.717c.316 0 .609.05.882.148L7.373.713A5.182 5.182 0 0 0 5.293.3" mask="url(#b)"/></g><path fill="#312783" d="M54.306 23.072h-2.623v7.698c0 1.398.479 2.62 1.468 3.613.993.992 2.217 1.467 3.616 1.467 1.233 0 2.333-.385 3.256-1.185l1.825 1.478v-13.07h-2.623v7.697c0 .684-.231 1.256-.716 1.742a2.356 2.356 0 0 1-1.742.718c-.682 0-1.261-.222-1.752-.695-.498-.485-.709-1.077-.709-1.765v-7.698z"/></g></svg>